<?xml version="1.0" encoding="UTF-8"?>
<svg xmlns="http://www.w3.org/2000/svg" xmlns:xlink="http://www.w3.org/1999/xlink" width="50px" height="50px" viewBox="0 0 50 49" version="1.1">
<g id="surface1">
<path style=" stroke:none;fill-rule:nonzero;fill:rgb(0%,0%,0%);fill-opacity:1;" d="M 0 24.492188 L 0 48.984375 L 49.984375 48.984375 L 49.984375 0 L 0 0 Z M 35.988281 3.179688 C 36.738281 3.289062 37.496094 3.480469 38.054688 3.699219 C 39.714844 4.347656 41.121094 5.535156 42.027344 7.046875 C 42.265625 7.441406 42.324219 7.554688 42.5 7.96875 C 42.597656 8.195312 42.695312 8.417969 42.707031 8.460938 C 42.726562 8.503906 42.753906 8.570312 42.761719 8.613281 C 42.773438 8.652344 42.824219 8.835938 42.878906 9.011719 C 43.238281 10.203125 43.285156 11.742188 43.011719 12.910156 C 42.6875 14.285156 42.070312 15.484375 41.152344 16.519531 C 40.882812 16.824219 40.859375 16.972656 41.023438 17.339844 C 41.089844 17.484375 41.210938 17.796875 41.300781 18.03125 C 41.382812 18.261719 41.46875 18.492188 41.488281 18.542969 C 41.523438 18.617188 41.734375 19.3125 41.835938 19.683594 C 41.921875 19.980469 42.140625 21.074219 42.214844 21.558594 C 42.414062 22.839844 42.414062 24.851562 42.214844 26.082031 C 42.105469 26.789062 42.058594 27.023438 41.949219 27.5 C 41.75 28.402344 41.363281 29.558594 40.96875 30.4375 C 40.839844 30.722656 40.253906 31.871094 40.140625 32.0625 C 38.625 34.578125 36.75 36.457031 34.292969 37.929688 C 33.011719 38.699219 31.191406 39.453125 29.871094 39.761719 C 29.640625 39.820312 29.390625 39.878906 29.316406 39.898438 C 27.792969 40.285156 25.453125 40.386719 23.519531 40.144531 C 22.859375 40.066406 22.5 39.996094 21.523438 39.765625 C 21.1875 39.6875 19.988281 39.3125 19.769531 39.222656 C 19.726562 39.203125 19.628906 39.160156 19.558594 39.132812 C 19.484375 39.097656 19.335938 39.039062 19.230469 39 C 18.835938 38.84375 17.902344 38.382812 17.371094 38.070312 C 16.046875 37.300781 15.101562 36.578125 14.007812 35.503906 C 12.421875 33.945312 11.285156 32.292969 10.382812 30.246094 C 10.089844 29.582031 9.792969 28.730469 9.628906 28.089844 C 9.570312 27.867188 9.511719 27.628906 9.492188 27.558594 C 9.457031 27.429688 9.402344 27.199219 9.359375 26.972656 C 9.296875 26.6875 9.1875 25.851562 9.125 25.230469 C 8.996094 23.820312 9.132812 21.515625 9.414062 20.402344 C 9.433594 20.332031 9.476562 20.167969 9.503906 20.042969 C 9.613281 19.585938 9.765625 19.019531 9.796875 18.945312 C 9.816406 18.90625 9.90625 18.660156 9.988281 18.402344 C 10.296875 17.492188 11.050781 15.902344 11.40625 15.40625 C 11.449219 15.347656 11.480469 15.289062 11.480469 15.277344 C 11.480469 15.242188 12.078125 14.367188 12.335938 14.027344 C 13.273438 12.785156 14.570312 11.5 15.808594 10.59375 C 16.113281 10.367188 17.132812 9.691406 17.164062 9.691406 C 17.171875 9.691406 17.300781 9.621094 17.441406 9.535156 C 17.707031 9.375 18.535156 8.953125 18.996094 8.75 C 19.425781 8.550781 20.191406 8.273438 20.800781 8.085938 C 21.117188 7.992188 21.429688 7.898438 21.492188 7.875 C 21.609375 7.835938 22.832031 7.59375 23.402344 7.496094 C 24.113281 7.371094 25.683594 7.316406 26.765625 7.378906 L 27.523438 7.417969 L 27.757812 7.308594 C 27.949219 7.222656 28.015625 7.171875 28.089844 7.039062 C 28.253906 6.738281 28.828125 6.011719 29.203125 5.628906 C 29.8125 5 30.578125 4.429688 31.316406 4.058594 C 31.621094 3.902344 31.78125 3.832031 32.246094 3.632812 C 32.5625 3.496094 33.484375 3.265625 34.042969 3.1875 C 34.371094 3.136719 35.664062 3.132812 35.988281 3.179688 Z M 35.988281 3.179688 "/>
<path style=" stroke:none;fill-rule:nonzero;fill:rgb(0%,0%,0%);fill-opacity:1;" d="M 34.371094 3.636719 C 32.488281 3.902344 31.402344 4.351562 30.121094 5.40625 C 29.640625 5.800781 29.019531 6.5 28.691406 7.011719 C 28.628906 7.113281 28.632812 7.117188 28.710938 7.167969 C 28.761719 7.195312 28.847656 7.230469 28.898438 7.246094 C 28.957031 7.257812 29.101562 7.335938 29.230469 7.417969 C 29.355469 7.503906 29.476562 7.570312 29.5 7.570312 C 29.519531 7.570312 29.570312 7.527344 29.609375 7.464844 C 29.859375 7.082031 30.457031 6.445312 30.925781 6.074219 C 31.570312 5.558594 32.433594 5.105469 33.125 4.921875 C 33.191406 4.902344 33.335938 4.863281 33.449219 4.835938 C 34.488281 4.558594 35.820312 4.574219 36.855469 4.878906 C 37.316406 5.015625 37.566406 5.101562 37.789062 5.207031 L 38.015625 5.316406 L 38.097656 5.214844 C 38.332031 4.941406 38.597656 4.574219 38.597656 4.535156 C 38.597656 4.449219 37.972656 4.152344 37.375 3.957031 C 37.074219 3.855469 36.503906 3.734375 36.015625 3.667969 C 35.644531 3.613281 34.652344 3.597656 34.371094 3.636719 Z M 34.371094 3.636719 "/>
<path style=" stroke:none;fill-rule:nonzero;fill:rgb(0%,0%,0%);fill-opacity:1;" d="M 34.273438 5.152344 C 33.082031 5.304688 31.957031 5.8125 31.003906 6.628906 C 30.542969 7.027344 29.910156 7.800781 29.992188 7.871094 C 30.011719 7.886719 30.09375 7.917969 30.179688 7.941406 C 31.324219 8.269531 32.523438 8.746094 33.414062 9.210938 C 33.988281 9.511719 34.574219 9.84375 34.644531 9.90625 C 34.679688 9.9375 34.742188 9.957031 34.773438 9.949219 C 34.835938 9.9375 35.324219 9.347656 35.863281 8.636719 C 35.957031 8.511719 36.375 7.964844 36.792969 7.421875 C 37.207031 6.882812 37.546875 6.417969 37.546875 6.386719 C 37.546875 6.355469 37.511719 6.304688 37.46875 6.265625 C 37.367188 6.175781 37.371094 6.152344 37.527344 5.941406 C 37.597656 5.835938 37.660156 5.738281 37.660156 5.71875 C 37.660156 5.683594 37.328125 5.515625 37.085938 5.4375 C 36.828125 5.347656 36.140625 5.195312 35.84375 5.148438 C 35.519531 5.101562 34.648438 5.105469 34.273438 5.152344 Z M 34.273438 5.152344 "/>
<path style=" stroke:none;fill-rule:nonzero;fill:rgb(0%,0%,0%);fill-opacity:1;" d="M 39.152344 5.285156 C 39.152344 5.328125 39.125 5.339844 39.054688 5.328125 C 38.976562 5.316406 38.945312 5.328125 38.917969 5.394531 C 38.894531 5.445312 38.84375 5.492188 38.796875 5.503906 C 38.746094 5.515625 38.730469 5.542969 38.746094 5.582031 C 38.757812 5.617188 38.769531 5.667969 38.769531 5.695312 C 38.769531 5.71875 38.886719 5.828125 39.03125 5.9375 C 39.171875 6.039062 39.324219 6.164062 39.371094 6.203125 C 39.421875 6.25 39.507812 6.296875 39.574219 6.308594 C 39.679688 6.328125 39.6875 6.320312 39.6875 6.234375 C 39.6875 6.171875 39.714844 6.136719 39.769531 6.121094 C 39.839844 6.101562 39.847656 6.078125 39.828125 6 C 39.8125 5.941406 39.820312 5.875 39.847656 5.84375 C 39.878906 5.804688 39.878906 5.777344 39.851562 5.746094 C 39.824219 5.71875 39.804688 5.652344 39.804688 5.589844 C 39.804688 5.515625 39.78125 5.476562 39.730469 5.460938 C 39.691406 5.453125 39.640625 5.402344 39.617188 5.347656 C 39.582031 5.269531 39.554688 5.257812 39.464844 5.28125 C 39.398438 5.292969 39.339844 5.289062 39.324219 5.265625 C 39.289062 5.203125 39.152344 5.214844 39.152344 5.285156 Z M 39.152344 5.285156 "/>
<path style=" stroke:none;fill-rule:nonzero;fill:rgb(0%,0%,0%);fill-opacity:1;" d="M 40.332031 6.4375 C 40.1875 6.628906 40.070312 6.808594 40.070312 6.839844 C 40.070312 6.871094 40.15625 7.003906 40.257812 7.132812 C 40.90625 7.9375 41.375 8.953125 41.574219 9.976562 C 41.6875 10.542969 41.695312 11.757812 41.589844 12.320312 C 41.40625 13.304688 40.980469 14.285156 40.371094 15.101562 C 40.1875 15.34375 40.15625 15.40625 40.222656 15.40625 C 40.28125 15.40625 40.675781 15.78125 40.761719 15.921875 C 40.808594 15.992188 40.855469 16.050781 40.875 16.050781 C 40.894531 16.050781 40.996094 15.945312 41.097656 15.8125 C 41.882812 14.832031 42.375 13.726562 42.625 12.398438 C 42.71875 11.871094 42.71875 10.472656 42.621094 9.957031 C 42.433594 8.941406 42.160156 8.199219 41.6875 7.382812 C 41.378906 6.851562 40.769531 6.09375 40.652344 6.09375 C 40.617188 6.097656 40.476562 6.246094 40.332031 6.4375 Z M 40.332031 6.4375 "/>
<path style=" stroke:none;fill-rule:nonzero;fill:rgb(0%,0%,0%);fill-opacity:1;" d="M 37.847656 6.859375 C 37.777344 6.949219 37.664062 7.085938 37.601562 7.167969 C 37.539062 7.25 37.40625 7.417969 37.304688 7.546875 C 37.207031 7.671875 36.953125 8 36.746094 8.269531 C 35.644531 9.707031 35.25 10.230469 35.25 10.257812 C 35.25 10.320312 35.976562 10.835938 36.03125 10.816406 C 36.078125 10.796875 36.335938 10.476562 37.207031 9.359375 C 38.21875 8.046875 38.730469 7.355469 38.730469 7.304688 C 38.730469 7.261719 38.128906 6.769531 38 6.707031 C 37.988281 6.703125 37.921875 6.773438 37.847656 6.859375 Z M 37.847656 6.859375 "/>
<path style=" stroke:none;fill-rule:nonzero;fill:rgb(0%,0%,0%);fill-opacity:1;" d="M 39.507812 7.480469 C 39.394531 7.617188 39.332031 7.65625 39.242188 7.660156 C 39.109375 7.664062 39.089844 7.691406 38.308594 8.707031 C 38.109375 8.96875 37.777344 9.398438 37.566406 9.671875 C 37.359375 9.941406 37.140625 10.226562 37.078125 10.296875 C 36.789062 10.660156 36.472656 11.105469 36.472656 11.164062 C 36.472656 11.203125 36.640625 11.378906 36.839844 11.566406 C 37.898438 12.527344 38.785156 13.539062 39.550781 14.660156 C 39.679688 14.84375 39.792969 14.992188 39.808594 14.992188 C 39.824219 14.992188 39.886719 14.925781 39.949219 14.847656 C 40.433594 14.246094 40.835938 13.417969 41.007812 12.683594 C 41.042969 12.550781 41.085938 12.375 41.105469 12.304688 C 41.125 12.230469 41.160156 11.949219 41.1875 11.6875 C 41.265625 10.875 41.128906 9.875 40.832031 9.085938 C 40.578125 8.394531 39.890625 7.304688 39.714844 7.304688 C 39.683594 7.304688 39.589844 7.386719 39.507812 7.480469 Z M 39.507812 7.480469 "/>
<path style=" stroke:none;fill-rule:nonzero;fill:rgb(0%,0%,0%);fill-opacity:1;" d="M 24.226562 7.882812 C 24.089844 7.902344 23.832031 7.929688 23.652344 7.953125 C 23.230469 8.011719 22.300781 8.164062 22.101562 8.21875 C 22.019531 8.242188 21.886719 8.269531 21.816406 8.289062 C 21.742188 8.308594 21.621094 8.339844 21.546875 8.359375 C 21.476562 8.382812 21.308594 8.425781 21.1875 8.457031 C 19.691406 8.863281 17.792969 9.773438 16.398438 10.753906 C 14.539062 12.066406 12.9375 13.769531 11.855469 15.578125 C 11.441406 16.277344 11.347656 16.449219 11.011719 17.148438 C 10.585938 18.035156 10.117188 19.429688 9.925781 20.367188 C 9.746094 21.25 9.726562 21.359375 9.640625 22.125 C 9.578125 22.675781 9.5625 23.09375 9.5625 23.886719 C 9.5625 25.144531 9.613281 25.710938 9.835938 26.859375 C 9.945312 27.429688 10.136719 28.207031 10.238281 28.464844 C 10.265625 28.539062 10.34375 28.777344 10.414062 28.996094 C 10.484375 29.214844 10.546875 29.410156 10.5625 29.433594 C 10.578125 29.453125 10.664062 29.65625 10.753906 29.886719 C 10.949219 30.378906 11.574219 31.605469 11.859375 32.0625 C 12.359375 32.855469 12.742188 33.382812 13.316406 34.070312 C 13.722656 34.554688 15.011719 35.847656 15.089844 35.847656 C 15.121094 35.847656 15.164062 35.777344 15.191406 35.6875 C 15.21875 35.597656 15.253906 35.496094 15.273438 35.464844 C 15.292969 35.425781 15.308594 35.359375 15.308594 35.320312 C 15.308594 35.277344 15.335938 35.242188 15.367188 35.242188 C 15.402344 35.242188 15.4375 35.214844 15.449219 35.175781 C 15.460938 35.140625 15.5 35.082031 15.53125 35.042969 C 15.589844 34.976562 15.558594 34.941406 15.089844 34.476562 C 14.03125 33.414062 13.214844 32.363281 12.554688 31.210938 C 12.335938 30.828125 11.789062 29.75 11.789062 29.699219 C 11.789062 29.6875 11.757812 29.605469 11.714844 29.515625 C 11.675781 29.429688 11.605469 29.253906 11.558594 29.128906 C 11.511719 29.003906 11.457031 28.867188 11.441406 28.828125 C 11.269531 28.425781 10.917969 27.136719 10.8125 26.5 C 10.609375 25.277344 10.585938 25.019531 10.585938 23.847656 C 10.585938 23.125 10.601562 22.609375 10.632812 22.390625 C 10.664062 22.203125 10.707031 21.871094 10.738281 21.652344 C 10.84375 20.898438 11.097656 19.796875 11.308594 19.171875 C 11.480469 18.671875 11.753906 17.984375 11.957031 17.554688 C 12.03125 17.394531 12.09375 17.253906 12.09375 17.246094 C 12.09375 17.222656 12.65625 16.21875 12.757812 16.0625 C 13.117188 15.503906 13.320312 15.207031 13.488281 14.992188 C 13.589844 14.855469 13.730469 14.675781 13.792969 14.59375 C 14.230469 14.027344 15.171875 13.046875 15.667969 12.628906 C 15.773438 12.546875 15.9375 12.40625 16.035156 12.320312 C 17.0625 11.449219 18.664062 10.484375 19.925781 9.992188 C 20.089844 9.929688 20.28125 9.851562 20.34375 9.824219 C 20.550781 9.730469 21.597656 9.398438 22.007812 9.296875 C 23.40625 8.957031 24.300781 8.859375 25.910156 8.863281 L 27 8.863281 L 27.023438 8.511719 C 27.035156 8.316406 27.070312 8.113281 27.097656 8.050781 C 27.160156 7.929688 27.148438 7.914062 26.957031 7.871094 C 26.769531 7.828125 24.554688 7.835938 24.226562 7.882812 Z M 24.226562 7.882812 "/>
<path style=" stroke:none;fill-rule:nonzero;fill:rgb(0%,0%,0%);fill-opacity:1;" d="M 29.859375 8.394531 C 29.832031 8.402344 29.816406 8.492188 29.816406 8.617188 C 29.816406 8.75 29.785156 8.890625 29.71875 9.035156 C 29.664062 9.152344 29.628906 9.269531 29.640625 9.296875 C 29.644531 9.320312 29.9375 9.429688 30.28125 9.539062 C 31.332031 9.871094 32.160156 10.230469 33.183594 10.785156 C 33.425781 10.917969 33.667969 11.058594 33.726562 11.09375 C 33.78125 11.136719 33.84375 11.167969 33.863281 11.167969 C 33.925781 11.167969 34.480469 10.425781 34.449219 10.382812 C 34.421875 10.339844 33.917969 10.023438 33.546875 9.816406 C 32.847656 9.425781 31.976562 9.039062 31.136719 8.746094 C 30.609375 8.558594 29.929688 8.375 29.859375 8.394531 Z M 29.859375 8.394531 "/>
<path style=" stroke:none;fill-rule:nonzero;fill:rgb(0%,0%,0%);fill-opacity:1;" d="M 24.589844 9.355469 C 24.152344 9.394531 23.6875 9.457031 23.441406 9.5 C 23.339844 9.519531 23.050781 9.570312 22.8125 9.617188 C 22.328125 9.699219 22.066406 9.757812 21.949219 9.804688 C 21.90625 9.820312 21.796875 9.855469 21.699219 9.878906 C 20.746094 10.125 19.636719 10.578125 18.542969 11.164062 C 18.375 11.253906 18.210938 11.347656 18.179688 11.375 C 18.148438 11.402344 18.039062 11.46875 17.929688 11.53125 C 17.574219 11.726562 16.941406 12.1875 16.308594 12.699219 C 15.769531 13.136719 14.964844 13.929688 14.523438 14.464844 C 14.226562 14.824219 13.964844 15.148438 13.863281 15.292969 C 12.019531 17.847656 11.0625 20.769531 11.0625 23.851562 C 11.0625 25.441406 11.324219 27.003906 11.855469 28.546875 C 12.027344 29.039062 12.097656 29.214844 12.371094 29.828125 C 12.742188 30.664062 13.394531 31.75 14.003906 32.53125 C 14.164062 32.738281 14.347656 32.980469 14.417969 33.070312 C 14.628906 33.347656 15.777344 34.484375 15.84375 34.484375 C 15.878906 34.484375 15.960938 34.421875 16.023438 34.34375 C 16.328125 33.972656 16.609375 33.578125 16.609375 33.527344 C 16.609375 33.5 16.554688 33.425781 16.488281 33.363281 C 15.808594 32.738281 14.996094 31.726562 14.378906 30.730469 C 14.128906 30.332031 13.664062 29.429688 13.5 29.035156 C 13.457031 28.941406 13.394531 28.792969 13.351562 28.707031 C 13.316406 28.613281 13.28125 28.527344 13.28125 28.503906 C 13.28125 28.480469 13.265625 28.4375 13.246094 28.398438 C 13.183594 28.285156 12.910156 27.402344 12.828125 27.066406 C 12.542969 25.871094 12.472656 25.328125 12.449219 24.164062 C 12.425781 23.070312 12.464844 22.425781 12.59375 21.746094 C 12.882812 20.203125 13.191406 19.257812 13.847656 17.945312 C 14.164062 17.308594 14.808594 16.277344 15.144531 15.863281 C 15.167969 15.832031 15.269531 15.703125 15.371094 15.578125 C 15.78125 15.070312 16.425781 14.402344 17.03125 13.871094 C 17.144531 13.769531 17.25 13.671875 17.261719 13.660156 C 17.292969 13.632812 17.863281 13.210938 18.160156 13.003906 C 18.84375 12.527344 19.890625 11.949219 20.570312 11.679688 C 20.949219 11.527344 21.023438 11.5 21.164062 11.441406 C 21.398438 11.34375 21.625 11.269531 21.875 11.199219 C 22.023438 11.160156 22.195312 11.109375 22.253906 11.089844 C 22.679688 10.964844 23 10.894531 23.519531 10.808594 C 24.386719 10.660156 24.707031 10.632812 25.800781 10.609375 L 26.929688 10.589844 L 27 10.109375 C 27.039062 9.851562 27.078125 9.582031 27.085938 9.515625 C 27.105469 9.40625 27.09375 9.394531 26.976562 9.371094 C 26.769531 9.332031 24.960938 9.316406 24.589844 9.355469 Z M 24.589844 9.355469 "/>
<path style=" stroke:none;fill-rule:nonzero;fill:rgb(0%,0%,0%);fill-opacity:1;" d="M 27.527344 9.964844 C 27.453125 10.390625 27.4375 10.582031 27.476562 10.632812 C 27.507812 10.683594 28.058594 10.785156 28.3125 10.789062 C 28.429688 10.789062 28.433594 10.785156 28.453125 10.570312 C 28.46875 10.453125 28.496094 10.269531 28.511719 10.167969 C 28.558594 9.945312 28.535156 9.917969 28.277344 9.917969 C 28.164062 9.917969 28.007812 9.878906 27.878906 9.824219 C 27.757812 9.769531 27.640625 9.730469 27.613281 9.730469 C 27.582031 9.730469 27.550781 9.820312 27.527344 9.964844 Z M 27.527344 9.964844 "/>
<path style=" stroke:none;fill-rule:nonzero;fill:rgb(0%,0%,0%);fill-opacity:1;" d="M 29.089844 9.851562 C 29.023438 10.066406 28.925781 10.65625 28.941406 10.789062 C 28.957031 10.941406 28.914062 10.921875 29.949219 11.222656 C 30.550781 11.398438 31.855469 11.964844 32.402344 12.285156 C 32.777344 12.503906 32.839844 12.519531 32.9375 12.410156 C 33.105469 12.226562 33.527344 11.652344 33.527344 11.609375 C 33.527344 11.554688 33.371094 11.453125 32.796875 11.128906 C 32.078125 10.726562 30.855469 10.210938 30.121094 9.996094 C 29.964844 9.949219 29.792969 9.898438 29.738281 9.882812 C 29.5 9.808594 29.367188 9.769531 29.253906 9.746094 C 29.140625 9.726562 29.128906 9.734375 29.089844 9.851562 Z M 29.089844 9.851562 "/>
<path style=" stroke:none;fill-rule:nonzero;fill:rgb(0%,0%,0%);fill-opacity:1;" d="M 34.617188 11.042969 C 34.472656 11.222656 34.355469 11.402344 34.355469 11.4375 C 34.351562 11.46875 34.507812 11.613281 34.714844 11.765625 L 35.078125 12.03125 L 35.167969 11.949219 C 35.3125 11.820312 35.671875 11.332031 35.671875 11.269531 C 35.671875 11.207031 35.015625 10.714844 34.933594 10.714844 C 34.902344 10.714844 34.757812 10.859375 34.617188 11.042969 Z M 34.617188 11.042969 "/>
<path style=" stroke:none;fill-rule:nonzero;fill:rgb(0%,0%,0%);fill-opacity:1;" d="M 24.878906 10.773438 C 24.441406 10.816406 23.496094 10.945312 23.289062 10.992188 C 23.164062 11.023438 22.859375 11.089844 22.621094 11.148438 C 22.171875 11.25 21.1875 11.566406 20.839844 11.714844 C 20.179688 12.007812 19.992188 12.089844 19.726562 12.230469 C 18.855469 12.683594 18.085938 13.195312 17.320312 13.832031 C 16.992188 14.101562 16.152344 14.925781 16.152344 14.976562 C 16.152344 14.996094 16.257812 15.09375 16.390625 15.1875 C 16.523438 15.28125 16.871094 15.53125 17.164062 15.746094 C 17.460938 15.960938 17.730469 16.148438 17.765625 16.167969 C 17.820312 16.199219 17.898438 16.148438 18.148438 15.929688 C 18.324219 15.773438 18.554688 15.585938 18.65625 15.5 C 18.765625 15.417969 18.855469 15.339844 18.867188 15.328125 C 18.890625 15.296875 19.746094 14.726562 19.765625 14.726562 C 19.773438 14.726562 19.890625 14.660156 20.019531 14.582031 C 20.414062 14.347656 21.109375 14.023438 21.644531 13.816406 C 22.132812 13.636719 22.933594 13.402344 23.078125 13.402344 C 23.117188 13.402344 23.160156 13.386719 23.171875 13.367188 C 23.195312 13.332031 23.304688 13.3125 23.722656 13.265625 C 23.886719 13.246094 23.921875 13.25 23.921875 13.296875 C 23.921875 13.382812 23.878906 13.402344 23.605469 13.441406 C 23.300781 13.492188 22.777344 13.613281 22.503906 13.703125 C 22.390625 13.738281 22.210938 13.792969 22.101562 13.828125 C 21.867188 13.902344 21.46875 14.042969 21.242188 14.144531 C 20.644531 14.394531 19.585938 14.996094 19.222656 15.285156 L 19.050781 15.417969 L 19.078125 16.199219 C 19.089844 16.625 19.113281 17.023438 19.121094 17.082031 C 19.144531 17.191406 19.144531 17.191406 20.265625 18.007812 C 21.117188 18.628906 20.996094 18.582031 21.285156 18.367188 C 22.058594 17.785156 22.976562 17.3125 23.730469 17.101562 C 24.003906 17.027344 24.679688 16.894531 24.996094 16.851562 C 25.40625 16.796875 26.261719 16.796875 26.597656 16.847656 C 27.71875 17.035156 27.914062 17.082031 28.578125 17.339844 C 28.792969 17.429688 28.988281 17.484375 29.011719 17.46875 C 29.109375 17.410156 29.394531 16.984375 29.363281 16.941406 C 29.347656 16.910156 29.242188 16.789062 29.125 16.667969 C 28.507812 16.019531 27.929688 15.140625 27.597656 14.367188 C 27.53125 14.199219 27.457031 14.027344 27.4375 13.988281 C 27.417969 13.945312 27.367188 13.816406 27.328125 13.695312 C 27.285156 13.578125 27.226562 13.46875 27.199219 13.445312 C 27.0625 13.339844 25.722656 13.242188 25.050781 13.289062 C 24.328125 13.339844 24.304688 13.335938 24.304688 13.25 C 24.304688 13.207031 24.308594 13.171875 24.316406 13.171875 C 25.128906 13.113281 25.726562 13.105469 26.378906 13.15625 C 26.785156 13.183594 27.128906 13.195312 27.144531 13.179688 C 27.160156 13.167969 27.148438 13.027344 27.113281 12.871094 C 26.992188 12.308594 26.945312 11.898438 26.945312 11.394531 C 26.945312 11.113281 26.929688 10.855469 26.910156 10.828125 C 26.878906 10.785156 26.710938 10.773438 25.960938 10.765625 C 25.460938 10.761719 24.972656 10.765625 24.878906 10.773438 Z M 24.878906 10.773438 "/>
<path style=" stroke:none;fill-rule:nonzero;fill:rgb(0%,0%,0%);fill-opacity:1;" d="M 27.425781 10.925781 C 27.316406 11.207031 27.589844 13.183594 27.761719 13.320312 C 27.785156 13.339844 28.011719 13.40625 28.265625 13.46875 C 28.515625 13.535156 28.753906 13.597656 28.792969 13.609375 C 28.882812 13.648438 28.878906 13.570312 28.761719 13.191406 C 28.574219 12.59375 28.476562 12.066406 28.453125 11.554688 C 28.4375 11.265625 28.40625 11.039062 28.382812 11.019531 C 28.335938 10.980469 27.714844 10.863281 27.554688 10.863281 C 27.496094 10.863281 27.4375 10.890625 27.425781 10.925781 Z M 27.425781 10.925781 "/>
<path style=" stroke:none;fill-rule:nonzero;fill:rgb(0%,0%,0%);fill-opacity:1;" d="M 28.960938 11.15625 C 28.914062 11.203125 28.933594 11.746094 28.992188 12.074219 C 29.160156 13.015625 29.496094 13.929688 29.667969 13.929688 C 29.707031 13.929688 30.699219 14.410156 30.917969 14.535156 C 31.027344 14.597656 31.144531 14.648438 31.167969 14.648438 C 31.195312 14.648438 31.308594 14.535156 31.414062 14.394531 C 31.523438 14.253906 31.855469 13.824219 32.148438 13.441406 C 32.445312 13.058594 32.683594 12.726562 32.683594 12.699219 C 32.683594 12.589844 31.527344 11.984375 30.695312 11.660156 C 30.269531 11.492188 29.132812 11.136719 29.007812 11.128906 C 28.996094 11.128906 28.972656 11.140625 28.960938 11.15625 Z M 28.960938 11.15625 "/>
<path style=" stroke:none;fill-rule:nonzero;fill:rgb(0%,0%,0%);fill-opacity:1;" d="M 36.035156 11.671875 C 35.882812 11.859375 35.632812 12.1875 35.578125 12.269531 C 35.507812 12.386719 35.484375 12.355469 36.070312 12.890625 C 36.703125 13.464844 37.6875 14.601562 38.160156 15.292969 C 38.246094 15.429688 38.355469 15.578125 38.394531 15.621094 L 38.472656 15.703125 L 38.640625 15.574219 C 38.804688 15.453125 38.921875 15.390625 39.183594 15.292969 C 39.25 15.265625 39.304688 15.242188 39.304688 15.230469 C 39.304688 15.148438 38.691406 14.269531 38.28125 13.761719 C 37.640625 12.976562 36.3125 11.65625 36.132812 11.632812 C 36.097656 11.625 36.058594 11.644531 36.035156 11.671875 Z M 36.035156 11.671875 "/>
<path style=" stroke:none;fill-rule:nonzero;fill:rgb(0%,0%,0%);fill-opacity:1;" d="M 33.628906 12.320312 C 33.460938 12.542969 33.335938 12.746094 33.34375 12.78125 C 33.355469 12.855469 33.976562 13.316406 34.0625 13.320312 C 34.097656 13.324219 34.222656 13.195312 34.351562 13.042969 C 34.742188 12.550781 34.769531 12.496094 34.730469 12.425781 C 34.664062 12.320312 34.089844 11.925781 34.003906 11.925781 C 33.953125 11.925781 33.835938 12.050781 33.628906 12.320312 Z M 33.628906 12.320312 "/>
<path style=" stroke:none;fill-rule:nonzero;fill:rgb(0%,0%,0%);fill-opacity:1;" d="M 35.066406 12.921875 C 35.015625 12.996094 34.875 13.179688 34.75 13.332031 C 34.625 13.484375 34.523438 13.628906 34.523438 13.65625 C 34.523438 13.679688 34.820312 13.996094 35.1875 14.355469 C 35.550781 14.714844 35.941406 15.121094 36.050781 15.253906 C 36.351562 15.625 36.859375 16.308594 37.023438 16.550781 C 37.242188 16.878906 37.214844 16.875 37.671875 16.664062 C 38.113281 16.457031 38.226562 16.351562 38.160156 16.199219 C 38.015625 15.863281 37.292969 14.882812 36.664062 14.175781 C 36.269531 13.734375 35.273438 12.796875 35.191406 12.796875 C 35.171875 12.796875 35.117188 12.855469 35.066406 12.921875 Z M 35.066406 12.921875 "/>
<path style=" stroke:none;fill-rule:nonzero;fill:rgb(0%,0%,0%);fill-opacity:1;" d="M 32.664062 13.574219 C 32.414062 13.898438 32.097656 14.300781 31.960938 14.472656 C 31.636719 14.886719 31.617188 14.933594 31.722656 15.03125 C 31.871094 15.164062 31.8125 15.242188 31.613281 15.167969 C 31.496094 15.125 31.488281 15.128906 31.359375 15.273438 C 31.292969 15.359375 31.230469 15.453125 31.230469 15.484375 C 31.230469 15.511719 31.304688 15.574219 31.390625 15.617188 C 31.480469 15.65625 31.648438 15.78125 31.757812 15.894531 L 31.96875 16.101562 L 32.113281 15.933594 C 32.195312 15.84375 32.265625 15.738281 32.265625 15.703125 C 32.265625 15.667969 32.203125 15.59375 32.128906 15.535156 C 31.886719 15.355469 31.996094 15.25 32.253906 15.425781 C 32.328125 15.476562 32.414062 15.503906 32.441406 15.492188 C 32.542969 15.429688 33.910156 13.632812 33.910156 13.550781 C 33.910156 13.46875 33.269531 12.984375 33.164062 12.984375 C 33.140625 12.984375 32.914062 13.25 32.664062 13.574219 Z M 32.664062 13.574219 "/>
<path style=" stroke:none;fill-rule:nonzero;fill:rgb(0%,0%,0%);fill-opacity:1;" d="M 27.824219 13.582031 C 27.824219 13.664062 28.0625 14.25 28.226562 14.574219 C 28.511719 15.140625 29.007812 15.847656 29.414062 16.261719 C 29.472656 16.328125 29.542969 16.28125 29.625 16.125 C 29.664062 16.046875 29.792969 15.898438 29.910156 15.796875 C 30.023438 15.699219 30.121094 15.601562 30.121094 15.585938 C 30.121094 15.566406 30.019531 15.425781 29.890625 15.273438 C 29.636719 14.960938 29.355469 14.53125 29.148438 14.128906 L 29.011719 13.859375 L 28.695312 13.757812 C 28.128906 13.578125 27.824219 13.519531 27.824219 13.582031 Z M 27.824219 13.582031 "/>
<path style=" stroke:none;fill-rule:nonzero;fill:rgb(0%,0%,0%);fill-opacity:1;" d="M 33.585938 14.835938 C 33.183594 15.355469 32.855469 15.808594 32.847656 15.839844 C 32.839844 15.871094 32.929688 15.988281 33.0625 16.109375 C 33.191406 16.230469 33.464844 16.515625 33.679688 16.75 C 34.054688 17.164062 34.070312 17.179688 34.265625 17.210938 C 34.5625 17.253906 35.609375 17.246094 35.917969 17.199219 C 36.621094 17.082031 37.011719 16.964844 37.011719 16.878906 C 37.011719 16.824219 36.574219 16.175781 36.28125 15.800781 C 35.734375 15.09375 34.53125 13.894531 34.375 13.894531 C 34.335938 13.894531 34.007812 14.277344 33.585938 14.835938 Z M 33.585938 14.835938 "/>
<path style=" stroke:none;fill-rule:nonzero;fill:rgb(0%,0%,0%);fill-opacity:1;" d="M 29.855469 14.394531 C 30.054688 14.730469 30.566406 15.332031 30.648438 15.332031 C 30.691406 15.332031 31.039062 14.890625 31.039062 14.839844 C 31.039062 14.820312 30.96875 14.761719 30.886719 14.707031 C 30.617188 14.539062 29.898438 14.195312 29.820312 14.195312 C 29.746094 14.195312 29.746094 14.207031 29.855469 14.394531 Z M 29.855469 14.394531 "/>
<path style=" stroke:none;fill-rule:nonzero;fill:rgb(0%,0%,0%);fill-opacity:1;" d="M 15.761719 15.375 C 15.367188 15.828125 14.660156 16.78125 14.660156 16.859375 C 14.660156 16.867188 14.589844 16.976562 14.503906 17.101562 C 14.324219 17.371094 13.855469 18.253906 13.855469 18.316406 C 13.855469 18.375 13.910156 18.445312 14.195312 18.769531 C 14.308594 18.898438 14.414062 19.003906 14.429688 19.003906 C 14.445312 19.003906 14.433594 18.878906 14.40625 18.726562 C 14.304688 18.179688 14.351562 17.75 14.5625 17.316406 C 14.847656 16.730469 15.289062 16.359375 15.960938 16.144531 C 16.195312 16.066406 16.800781 16.050781 17.050781 16.113281 C 17.34375 16.195312 17.414062 16.203125 17.414062 16.167969 C 17.414062 16.144531 17.167969 15.953125 16.871094 15.734375 C 16.570312 15.511719 16.265625 15.292969 16.191406 15.242188 C 16.121094 15.1875 16.039062 15.140625 16.011719 15.140625 C 15.988281 15.140625 15.871094 15.25 15.761719 15.375 Z M 15.761719 15.375 "/>
<path style=" stroke:none;fill-rule:nonzero;fill:rgb(0%,0%,0%);fill-opacity:1;" d="M 18.574219 15.777344 C 18.222656 16.0625 18.027344 16.257812 18.027344 16.320312 C 18.03125 16.386719 18.808594 16.960938 18.890625 16.960938 C 18.949219 16.960938 18.953125 16.898438 18.925781 16.304688 C 18.910156 15.949219 18.886719 15.628906 18.871094 15.609375 C 18.851562 15.574219 18.761719 15.625 18.574219 15.777344 Z M 18.574219 15.777344 "/>
<path style=" stroke:none;fill-rule:nonzero;fill:rgb(0%,0%,0%);fill-opacity:1;" d="M 32.480469 16.273438 C 32.382812 16.398438 32.300781 16.519531 32.300781 16.550781 C 32.300781 16.578125 32.347656 16.621094 32.410156 16.644531 C 32.46875 16.671875 32.613281 16.730469 32.734375 16.785156 C 33.246094 17.003906 33.679688 17.117188 33.679688 17.039062 C 33.679688 16.976562 32.761719 16.050781 32.703125 16.050781 C 32.675781 16.050781 32.578125 16.152344 32.480469 16.273438 Z M 32.480469 16.273438 "/>
<path style=" stroke:none;fill-rule:nonzero;fill:rgb(0%,0%,0%);fill-opacity:1;" d="M 16.34375 16.226562 C 15.703125 16.296875 15.074219 16.710938 14.78125 17.253906 C 14.640625 17.515625 14.503906 17.996094 14.503906 18.246094 C 14.503906 18.472656 14.632812 18.953125 14.753906 19.1875 C 14.882812 19.449219 15.273438 19.859375 15.359375 19.824219 C 15.394531 19.8125 15.449219 19.726562 15.488281 19.640625 C 15.578125 19.414062 16.039062 18.523438 16.167969 18.328125 C 16.269531 18.179688 16.382812 18.117188 16.382812 18.210938 C 16.382812 18.238281 16.28125 18.429688 16.160156 18.640625 C 15.871094 19.136719 15.527344 19.898438 15.554688 19.972656 C 15.585938 20.050781 15.882812 20.167969 16.238281 20.238281 C 16.527344 20.292969 16.582031 20.292969 16.894531 20.242188 C 17.246094 20.179688 17.71875 19.980469 17.71875 19.894531 C 17.71875 19.871094 17.6875 19.78125 17.644531 19.691406 C 17.554688 19.515625 17.546875 19.410156 17.613281 19.226562 C 17.722656 18.894531 18.03125 18.664062 18.359375 18.664062 C 18.542969 18.664062 18.5625 18.65625 18.585938 18.5625 C 18.601562 18.511719 18.601562 18.304688 18.59375 18.101562 C 18.578125 17.769531 18.558594 17.703125 18.421875 17.40625 C 18.308594 17.171875 18.199219 17.011719 18.039062 16.847656 C 17.808594 16.613281 17.746094 16.585938 17.644531 16.667969 C 17.496094 16.785156 16.964844 17.421875 16.730469 17.761719 C 16.609375 17.941406 16.496094 18 16.496094 17.886719 C 16.496094 17.792969 17.003906 17.109375 17.363281 16.722656 C 17.460938 16.621094 17.519531 16.523438 17.507812 16.492188 C 17.449219 16.34375 16.753906 16.183594 16.34375 16.226562 Z M 16.34375 16.226562 "/>
<path style=" stroke:none;fill-rule:nonzero;fill:rgb(0%,0%,0%);fill-opacity:1;" d="M 39.421875 16.296875 C 39.421875 16.355469 39.484375 16.371094 39.511719 16.320312 C 39.523438 16.300781 39.507812 16.277344 39.480469 16.261719 C 39.445312 16.25 39.421875 16.261719 39.421875 16.296875 Z M 39.421875 16.296875 "/>
<path style=" stroke:none;fill-rule:nonzero;fill:rgb(0%,0%,0%);fill-opacity:1;" d="M 39.480469 16.429688 C 39.46875 16.449219 39.484375 16.46875 39.515625 16.46875 C 39.550781 16.46875 39.566406 16.449219 39.554688 16.429688 C 39.542969 16.40625 39.523438 16.390625 39.515625 16.390625 C 39.507812 16.390625 39.488281 16.40625 39.480469 16.429688 Z M 39.480469 16.429688 "/>
<path style=" stroke:none;fill-rule:nonzero;fill:rgb(0%,0%,0%);fill-opacity:1;" d="M 39.429688 16.769531 C 39.429688 16.824219 39.4375 16.84375 39.449219 16.816406 C 39.457031 16.792969 39.457031 16.746094 39.449219 16.722656 C 39.4375 16.699219 39.429688 16.71875 39.429688 16.769531 Z M 39.429688 16.769531 "/>
<path style=" stroke:none;fill-rule:nonzero;fill:rgb(0%,0%,0%);fill-opacity:1;" d="M 18.285156 16.835938 C 18.308594 16.84375 18.332031 16.863281 18.332031 16.882812 C 18.332031 16.898438 18.390625 17.007812 18.464844 17.128906 C 18.585938 17.328125 18.636719 17.460938 18.75 17.890625 C 18.800781 18.082031 18.804688 18.414062 18.757812 18.578125 C 18.726562 18.679688 18.734375 18.714844 18.820312 18.8125 C 18.867188 18.878906 18.941406 18.925781 18.972656 18.925781 C 19.023438 18.925781 19.027344 18.832031 19.003906 18.140625 C 18.976562 17.371094 18.957031 17.253906 18.835938 17.15625 C 18.691406 17.042969 18.316406 16.808594 18.277344 16.8125 C 18.257812 16.8125 18.257812 16.824219 18.285156 16.835938 Z M 18.285156 16.835938 "/>
<path style=" stroke:none;fill-rule:nonzero;fill:rgb(0%,0%,0%);fill-opacity:1;" d="M 24.878906 17.015625 C 24.464844 17.074219 23.902344 17.203125 23.460938 17.339844 C 23.144531 17.445312 22.503906 17.75 22.101562 17.992188 C 21.742188 18.210938 21.257812 18.570312 21.230469 18.640625 C 21.21875 18.671875 21.289062 18.75 21.386719 18.820312 C 21.621094 18.996094 22.390625 19.550781 22.851562 19.890625 C 23.679688 20.488281 24.328125 20.960938 24.472656 21.066406 C 24.558594 21.132812 24.714844 21.242188 24.820312 21.3125 C 24.925781 21.378906 25.019531 21.449219 25.03125 21.464844 C 25.082031 21.523438 25.578125 21.84375 25.621094 21.84375 C 25.667969 21.84375 25.898438 21.5625 26.464844 20.816406 C 26.574219 20.679688 26.859375 20.300781 27.105469 19.984375 C 28.601562 18.046875 28.855469 17.703125 28.835938 17.671875 C 28.761719 17.558594 27.949219 17.269531 27.269531 17.113281 C 26.578125 16.957031 25.605469 16.917969 24.878906 17.015625 Z M 24.878906 17.015625 "/>
<path style=" stroke:none;fill-rule:nonzero;fill:rgb(0%,0%,0%);fill-opacity:1;" d="M 37.804688 17.148438 L 37.511719 17.300781 L 37.578125 17.441406 C 37.613281 17.519531 37.710938 17.707031 37.789062 17.863281 C 37.933594 18.140625 37.9375 18.140625 38.0625 18.121094 C 38.203125 18.097656 38.695312 17.84375 38.695312 17.792969 C 38.695312 17.777344 38.625 17.691406 38.542969 17.597656 C 38.457031 17.507812 38.339844 17.339844 38.28125 17.226562 C 38.222656 17.113281 38.160156 17.015625 38.140625 17.011719 C 38.117188 17.003906 37.96875 17.070312 37.804688 17.148438 Z M 37.804688 17.148438 "/>
<path style=" stroke:none;fill-rule:nonzero;fill:rgb(0%,0%,0%);fill-opacity:1;" d="M 31.996094 17.285156 C 31.945312 17.402344 31.832031 17.578125 31.738281 17.679688 C 31.648438 17.777344 31.574219 17.871094 31.574219 17.886719 C 31.574219 17.929688 32.273438 18.234375 32.6875 18.371094 C 33.148438 18.527344 33.503906 18.601562 34.109375 18.679688 C 34.578125 18.742188 34.800781 18.753906 34.839844 18.710938 C 34.871094 18.679688 34.738281 18.441406 34.453125 18.027344 C 34.21875 17.6875 34.261719 17.707031 33.679688 17.582031 C 33.296875 17.5 32.59375 17.273438 32.371094 17.164062 C 32.273438 17.113281 32.167969 17.074219 32.140625 17.074219 C 32.109375 17.074219 32.050781 17.167969 31.996094 17.285156 Z M 31.996094 17.285156 "/>
<path style=" stroke:none;fill-rule:nonzero;fill:rgb(0%,0%,0%);fill-opacity:1;" d="M 37.089844 17.417969 C 36.644531 17.59375 35.859375 17.714844 35.132812 17.71875 C 34.816406 17.71875 34.554688 17.734375 34.546875 17.75 C 34.535156 17.765625 34.550781 17.820312 34.574219 17.871094 C 34.648438 18.003906 35.050781 18.636719 35.097656 18.6875 C 35.148438 18.75 35.664062 18.753906 36.011719 18.695312 C 36.871094 18.554688 37.394531 18.425781 37.675781 18.277344 L 37.78125 18.222656 L 37.597656 17.863281 C 37.339844 17.355469 37.308594 17.332031 37.089844 17.417969 Z M 37.089844 17.417969 "/>
<path style=" stroke:none;fill-rule:nonzero;fill:rgb(0%,0%,0%);fill-opacity:1;" d="M 19.15625 17.933594 C 19.167969 18.199219 19.1875 18.558594 19.195312 18.738281 C 19.207031 18.917969 19.222656 19.382812 19.234375 19.78125 C 19.246094 20.171875 19.269531 20.546875 19.285156 20.613281 C 19.3125 20.722656 19.316406 20.714844 19.503906 20.40625 C 19.761719 19.976562 20.214844 19.390625 20.582031 19.003906 C 20.75 18.824219 20.882812 18.671875 20.875 18.65625 C 20.855469 18.625 20.324219 18.234375 19.484375 17.628906 C 19.347656 17.53125 19.214844 17.453125 19.183594 17.453125 C 19.140625 17.453125 19.136719 17.535156 19.15625 17.933594 Z M 19.15625 17.933594 "/>
<path style=" stroke:none;fill-rule:nonzero;fill:rgb(0%,0%,0%);fill-opacity:1;" d="M 29.574219 17.59375 C 29.472656 17.703125 29.496094 17.777344 29.652344 17.871094 C 29.730469 17.921875 29.894531 18.03125 30.019531 18.121094 C 30.203125 18.253906 30.253906 18.277344 30.316406 18.246094 C 30.445312 18.175781 30.402344 18.070312 30.210938 17.976562 C 30.113281 17.933594 29.945312 17.8125 29.835938 17.707031 C 29.730469 17.609375 29.640625 17.527344 29.640625 17.527344 C 29.640625 17.527344 29.609375 17.558594 29.574219 17.59375 Z M 29.574219 17.59375 "/>
<path style=" stroke:none;fill-rule:nonzero;fill:rgb(0%,0%,0%);fill-opacity:1;" d="M 40.453125 17.699219 C 40.386719 17.78125 40.105469 17.925781 39.90625 17.984375 C 39.699219 18.042969 39.6875 18.078125 39.808594 18.347656 C 39.871094 18.5 40.167969 19.351562 40.296875 19.78125 C 40.390625 20.070312 40.59375 21.007812 40.679688 21.539062 C 40.777344 22.109375 40.800781 22.316406 40.839844 23.042969 C 40.96875 25.21875 40.570312 27.5 39.703125 29.550781 C 39.199219 30.753906 38.691406 31.648438 37.917969 32.6875 C 37.121094 33.761719 35.992188 34.890625 34.890625 35.726562 C 34.714844 35.859375 34.652344 35.945312 34.546875 36.167969 C 34.371094 36.550781 34.15625 36.84375 33.84375 37.140625 C 33.359375 37.605469 32.917969 37.832031 32.242188 37.96875 C 32.015625 38.015625 31.351562 38.003906 30.980469 37.949219 C 30.867188 37.929688 30.734375 37.957031 30.425781 38.058594 C 29.320312 38.421875 28.339844 38.613281 26.773438 38.769531 C 26.265625 38.816406 24.777344 38.792969 24.226562 38.730469 C 23.035156 38.59375 22.402344 38.46875 21.445312 38.191406 C 21.054688 38.082031 20.101562 37.75 19.882812 37.648438 C 19.820312 37.621094 19.628906 37.535156 19.460938 37.457031 C 18.800781 37.164062 18.160156 36.8125 17.34375 36.304688 C 17.171875 36.195312 17.136719 36.183594 17.050781 36.21875 C 16.996094 36.242188 16.953125 36.289062 16.953125 36.320312 C 16.953125 36.347656 16.921875 36.386719 16.878906 36.398438 C 16.835938 36.410156 16.800781 36.445312 16.800781 36.476562 C 16.800781 36.507812 16.761719 36.550781 16.707031 36.566406 C 16.652344 36.585938 16.609375 36.617188 16.609375 36.636719 C 16.609375 36.65625 16.546875 36.6875 16.46875 36.703125 C 16.390625 36.722656 16.324219 36.757812 16.316406 36.78125 C 16.300781 36.824219 16.886719 37.230469 17.453125 37.570312 C 18.429688 38.160156 19.785156 38.761719 20.820312 39.066406 C 21.042969 39.132812 21.257812 39.199219 21.300781 39.21875 C 21.488281 39.296875 22.671875 39.542969 23.5 39.667969 C 24.65625 39.847656 26.898438 39.851562 27.949219 39.671875 C 28.703125 39.542969 28.710938 39.542969 29.425781 39.382812 C 29.660156 39.335938 29.929688 39.269531 30.019531 39.242188 C 30.105469 39.214844 30.308594 39.152344 30.464844 39.105469 C 30.9375 38.964844 31.203125 38.875 31.328125 38.820312 C 31.390625 38.792969 31.640625 38.691406 31.886719 38.59375 C 32.425781 38.382812 33.351562 37.921875 33.949219 37.570312 C 36.53125 36.0625 38.695312 33.816406 40.035156 31.257812 C 40.714844 29.953125 41.125 28.851562 41.511719 27.292969 C 41.804688 26.097656 41.964844 24.144531 41.875 22.941406 C 41.804688 22.050781 41.625 20.8125 41.492188 20.289062 C 41.261719 19.410156 41.199219 19.199219 41.019531 18.679688 C 40.691406 17.722656 40.589844 17.539062 40.453125 17.699219 Z M 40.453125 17.699219 "/>
<path style=" stroke:none;fill-rule:nonzero;fill:rgb(0%,0%,0%);fill-opacity:1;" d="M 28.84375 18.519531 C 28.601562 18.835938 28.148438 19.417969 27.84375 19.816406 C 26.511719 21.535156 26.054688 22.148438 26.074219 22.195312 C 26.085938 22.222656 26.167969 22.292969 26.257812 22.355469 C 26.351562 22.417969 26.511719 22.53125 26.613281 22.609375 C 26.71875 22.691406 26.820312 22.746094 26.84375 22.738281 C 26.886719 22.722656 27.042969 22.53125 28.054688 21.21875 C 28.390625 20.777344 28.914062 20.097656 29.222656 19.703125 C 29.917969 18.804688 30.121094 18.527344 30.121094 18.480469 C 30.121094 18.398438 29.464844 17.945312 29.347656 17.945312 C 29.3125 17.945312 29.085938 18.203125 28.84375 18.519531 Z M 28.84375 18.519531 "/>
<path style=" stroke:none;fill-rule:nonzero;fill:rgb(0%,0%,0%);fill-opacity:1;" d="M 38.90625 18.277344 C 38.796875 18.332031 38.589844 18.433594 38.449219 18.492188 C 38.308594 18.554688 38.179688 18.621094 38.167969 18.648438 C 38.164062 18.671875 38.1875 18.765625 38.230469 18.855469 C 38.308594 19.015625 38.628906 19.945312 38.699219 20.203125 C 38.792969 20.546875 38.816406 20.644531 38.902344 21.066406 C 39.09375 22.007812 39.148438 22.453125 39.1875 23.28125 C 39.21875 23.9375 39.171875 25.042969 39.097656 25.535156 C 38.890625 26.816406 38.664062 27.675781 38.265625 28.675781 C 38.046875 29.226562 37.730469 29.867188 37.675781 29.867188 C 37.578125 29.867188 37.589844 29.792969 37.722656 29.5 C 38.289062 28.292969 38.628906 27.261719 38.847656 26.097656 C 39.078125 24.878906 39.085938 22.84375 38.863281 21.578125 C 38.789062 21.152344 38.484375 19.945312 38.386719 19.691406 C 38.347656 19.585938 38.273438 19.398438 38.230469 19.277344 C 38.183594 19.160156 38.125 19.007812 38.097656 18.9375 C 38.066406 18.875 38.042969 18.804688 38.042969 18.785156 C 38.042969 18.707031 37.933594 18.707031 37.746094 18.777344 C 37.300781 18.941406 36.304688 19.160156 35.714844 19.210938 C 35.550781 19.226562 35.429688 19.257812 35.417969 19.285156 C 35.40625 19.308594 35.453125 19.449219 35.515625 19.59375 C 35.632812 19.84375 35.910156 20.601562 35.976562 20.839844 C 36.070312 21.167969 36.121094 21.390625 36.164062 21.597656 C 36.191406 21.722656 36.230469 21.882812 36.25 21.960938 C 36.269531 22.035156 36.28125 22.148438 36.28125 22.210938 C 36.28125 22.273438 36.296875 22.371094 36.316406 22.433594 C 36.335938 22.492188 36.363281 22.683594 36.371094 22.851562 C 36.390625 23.144531 36.386719 23.167969 36.316406 23.167969 C 36.277344 23.167969 36.246094 23.144531 36.246094 23.117188 C 36.246094 22.859375 36.09375 21.945312 35.984375 21.539062 C 35.953125 21.425781 35.917969 21.285156 35.910156 21.226562 C 35.898438 21.164062 35.867188 21.125 35.828125 21.125 C 35.765625 21.125 35.621094 21.375 34.523438 23.414062 C 34.410156 23.621094 34.230469 23.945312 34.128906 24.132812 C 34.023438 24.316406 33.867188 24.609375 33.777344 24.777344 C 33.6875 24.941406 33.527344 25.242188 33.421875 25.4375 C 33.3125 25.636719 33.089844 26.050781 32.921875 26.367188 C 32.6875 26.796875 32.628906 26.945312 32.660156 26.984375 C 32.699219 27.03125 33.425781 27.574219 34.253906 28.175781 C 34.476562 28.335938 34.675781 28.480469 34.695312 28.492188 C 34.789062 28.574219 34.96875 28.683594 35.027344 28.707031 C 35.105469 28.730469 35.210938 28.558594 35.378906 28.144531 C 35.4375 27.996094 35.511719 27.828125 35.535156 27.765625 C 35.664062 27.476562 35.753906 27.207031 35.847656 26.859375 C 35.898438 26.648438 35.960938 26.417969 35.980469 26.347656 C 36.121094 25.820312 36.203125 25.253906 36.246094 24.496094 C 36.269531 24.109375 36.292969 23.785156 36.304688 23.765625 C 36.316406 23.75 36.351562 23.734375 36.386719 23.734375 C 36.496094 23.734375 36.394531 25.199219 36.226562 25.949219 C 36.148438 26.296875 36.128906 26.382812 36.089844 26.554688 C 36.003906 26.925781 35.660156 27.886719 35.457031 28.335938 C 35.339844 28.582031 35.25 28.8125 35.25 28.847656 C 35.253906 28.894531 35.632812 29.1875 36.464844 29.78125 C 36.578125 29.859375 36.78125 30.003906 36.914062 30.101562 C 37.046875 30.203125 37.1875 30.285156 37.214844 30.285156 C 37.246094 30.285156 37.304688 30.242188 37.347656 30.191406 C 37.390625 30.136719 37.4375 30.09375 37.460938 30.09375 C 37.53125 30.09375 37.546875 30.210938 37.488281 30.320312 C 37.4375 30.417969 37.4375 30.4375 37.5 30.503906 C 37.578125 30.589844 38.308594 31.117188 38.351562 31.117188 C 38.433594 31.117188 39.078125 29.84375 39.363281 29.109375 C 39.441406 28.914062 39.515625 28.71875 39.535156 28.675781 C 39.613281 28.488281 39.730469 28.109375 39.886719 27.558594 C 40.039062 27.019531 40.128906 26.539062 40.300781 25.367188 C 40.367188 24.914062 40.390625 23.472656 40.34375 22.847656 C 40.28125 22.085938 40.179688 21.355469 40.050781 20.746094 C 40.015625 20.589844 39.976562 20.417969 39.96875 20.367188 C 39.960938 20.3125 39.9375 20.238281 39.917969 20.195312 C 39.902344 20.152344 39.867188 20.050781 39.847656 19.96875 C 39.734375 19.554688 39.5625 19.007812 39.5 18.871094 C 39.464844 18.789062 39.386719 18.59375 39.328125 18.441406 C 39.207031 18.128906 39.1875 18.121094 38.90625 18.277344 Z M 38.90625 18.277344 "/>
<path style=" stroke:none;fill-rule:nonzero;fill:rgb(0%,0%,0%);fill-opacity:1;" d="M 30.917969 18.3125 C 30.800781 18.4375 30.695312 18.589844 30.695312 18.636719 C 30.695312 18.652344 30.820312 18.800781 30.972656 18.957031 C 31.648438 19.660156 32.039062 20.238281 32.46875 21.160156 C 32.625 21.5 32.859375 22.25 32.949219 22.714844 C 33.066406 23.292969 33.066406 24.699219 32.953125 25.210938 C 32.859375 25.636719 32.792969 25.90625 32.742188 26.066406 C 32.710938 26.164062 32.699219 26.265625 32.710938 26.28125 C 32.742188 26.332031 32.894531 26.078125 33.40625 25.136719 C 33.484375 24.980469 33.597656 24.785156 33.640625 24.699219 C 33.691406 24.617188 33.792969 24.429688 33.871094 24.285156 C 34.066406 23.917969 34.78125 22.601562 34.867188 22.46875 C 34.902344 22.402344 35.070312 22.097656 35.234375 21.785156 C 35.398438 21.472656 35.582031 21.132812 35.644531 21.027344 C 35.703125 20.921875 35.753906 20.792969 35.753906 20.742188 C 35.75 20.632812 35.511719 19.992188 35.304688 19.542969 C 35.15625 19.230469 35.191406 19.246094 34.5625 19.210938 C 33.503906 19.160156 32.375 18.855469 31.375 18.355469 C 31.210938 18.277344 31.066406 18.207031 31.046875 18.207031 C 31.027344 18.207031 30.96875 18.253906 30.917969 18.3125 Z M 30.917969 18.3125 "/>
<path style=" stroke:none;fill-rule:nonzero;fill:rgb(0%,0%,0%);fill-opacity:1;" d="M 13.683594 18.664062 C 13.5625 18.890625 13.25 19.746094 13.132812 20.15625 C 13.066406 20.386719 12.996094 20.625 12.976562 20.6875 C 12.960938 20.75 12.929688 20.878906 12.90625 20.972656 C 12.882812 21.066406 12.847656 21.21875 12.824219 21.3125 C 12.800781 21.40625 12.769531 21.613281 12.75 21.765625 C 12.726562 21.921875 12.6875 22.195312 12.660156 22.371094 C 12.585938 22.886719 12.597656 24.925781 12.683594 25.53125 C 12.773438 26.167969 12.882812 26.746094 13.003906 27.179688 C 13.027344 27.253906 13.074219 27.414062 13.109375 27.539062 C 13.238281 28.015625 13.570312 28.882812 13.824219 29.414062 C 14.097656 29.976562 14.742188 31.101562 14.855469 31.191406 C 14.867188 31.203125 14.929688 31.296875 15.003906 31.402344 C 15.164062 31.640625 15.652344 32.25 15.882812 32.5 C 16.261719 32.910156 16.632812 33.28125 16.699219 33.316406 C 16.78125 33.363281 16.847656 33.292969 17.285156 32.726562 C 17.457031 32.496094 17.679688 32.207031 17.773438 32.082031 C 17.871094 31.957031 17.949219 31.820312 17.949219 31.785156 C 17.949219 31.742188 17.824219 31.578125 17.667969 31.421875 C 16.945312 30.691406 16.25 29.730469 15.765625 28.773438 C 15.539062 28.332031 15.207031 27.53125 15.117188 27.21875 C 15.089844 27.125 15.039062 26.953125 15.003906 26.839844 C 14.835938 26.324219 14.800781 26.070312 14.890625 26.050781 C 14.9375 26.042969 14.964844 26.085938 14.996094 26.203125 C 15.019531 26.292969 15.070312 26.511719 15.117188 26.6875 C 15.4375 27.949219 16.105469 29.277344 17.019531 30.457031 C 17.265625 30.78125 18.050781 31.609375 18.101562 31.609375 C 18.136719 31.609375 18.386719 31.296875 19.042969 30.4375 L 19.460938 29.886719 L 19.449219 29.167969 C 19.441406 28.773438 19.421875 28.21875 19.410156 27.9375 C 19.382812 27.441406 19.375 27.414062 19.222656 27.121094 C 19.140625 26.953125 19.0625 26.78125 19.050781 26.742188 C 19.035156 26.703125 18.96875 26.5 18.894531 26.289062 C 18.71875 25.789062 18.617188 25.285156 18.546875 24.601562 L 18.492188 24.046875 L 18.140625 23.636719 C 17.945312 23.410156 17.667969 23.082031 17.519531 22.902344 C 17.367188 22.722656 17.234375 22.574219 17.222656 22.5625 C 17.203125 22.542969 16.554688 21.777344 16.324219 21.503906 C 16.261719 21.429688 16.097656 21.242188 15.960938 21.085938 C 15.820312 20.929688 15.640625 20.722656 15.5625 20.625 C 15.484375 20.523438 15.398438 20.453125 15.371094 20.464844 C 15.34375 20.476562 15.300781 20.546875 15.273438 20.625 C 15.199219 20.855469 15.078125 21.28125 15.039062 21.484375 C 15.019531 21.585938 14.984375 21.746094 14.960938 21.84375 C 14.722656 22.9375 14.691406 24.144531 14.863281 25.496094 C 14.871094 25.589844 14.75 25.621094 14.71875 25.527344 C 14.691406 25.433594 14.628906 24.769531 14.597656 24.246094 C 14.554688 23.53125 14.699219 22.171875 14.90625 21.371094 C 15.027344 20.914062 15.144531 20.5 15.203125 20.359375 C 15.242188 20.261719 15.214844 20.222656 14.769531 19.695312 C 14.507812 19.390625 14.1875 19.011719 14.054688 18.851562 C 13.921875 18.695312 13.796875 18.5625 13.777344 18.558594 C 13.757812 18.550781 13.71875 18.597656 13.683594 18.664062 Z M 13.683594 18.664062 "/>
<path style=" stroke:none;fill-rule:nonzero;fill:rgb(0%,0%,0%);fill-opacity:1;" d="M 20.640625 19.171875 C 20.167969 19.664062 19.804688 20.167969 19.460938 20.828125 L 19.328125 21.085938 L 19.328125 21.660156 C 19.328125 22.183594 19.347656 22.703125 19.425781 24.371094 L 19.453125 24.914062 L 19.839844 25.378906 C 20.371094 26.019531 20.824219 26.542969 21.105469 26.855469 C 21.230469 27 21.351562 27.136719 21.367188 27.164062 C 21.429688 27.265625 21.53125 27.210938 21.710938 26.980469 C 21.8125 26.851562 22.128906 26.4375 22.421875 26.0625 C 22.710938 25.6875 23.117188 25.160156 23.328125 24.890625 C 23.535156 24.617188 23.835938 24.226562 23.996094 24.019531 C 25.019531 22.691406 25.488281 22.070312 25.488281 22.035156 C 25.488281 22.015625 25.398438 21.933594 25.289062 21.855469 C 25.179688 21.773438 24.929688 21.59375 24.738281 21.445312 C 24.546875 21.300781 24.285156 21.105469 24.148438 21.007812 C 24.015625 20.914062 23.691406 20.679688 23.425781 20.488281 C 21.234375 18.894531 21.121094 18.8125 21.050781 18.8125 C 21.011719 18.8125 20.828125 18.972656 20.640625 19.171875 Z M 20.640625 19.171875 "/>
<path style=" stroke:none;fill-rule:nonzero;fill:rgb(0%,0%,0%);fill-opacity:1;" d="M 30.496094 18.863281 C 30.464844 18.890625 30.292969 19.09375 30.117188 19.324219 C 29.820312 19.714844 29.542969 20.074219 28.496094 21.429688 C 27.46875 22.761719 27.289062 23.003906 27.292969 23.058594 C 27.292969 23.105469 27.507812 23.269531 28.953125 24.320312 C 29.289062 24.566406 29.652344 24.828125 29.757812 24.910156 C 30.25 25.269531 30.914062 25.75 31.253906 25.996094 C 31.464844 26.148438 31.761719 26.363281 31.917969 26.476562 C 32.078125 26.59375 32.238281 26.6875 32.277344 26.6875 C 32.3125 26.6875 32.359375 26.644531 32.382812 26.582031 C 32.726562 25.714844 32.878906 24.921875 32.878906 23.980469 C 32.878906 22.632812 32.617188 21.660156 31.914062 20.414062 C 31.738281 20.101562 31.316406 19.546875 30.976562 19.195312 C 30.640625 18.839844 30.578125 18.800781 30.496094 18.863281 Z M 30.496094 18.863281 "/>
<path style=" stroke:none;fill-rule:nonzero;fill:rgb(0%,0%,0%);fill-opacity:1;" d="M 18.082031 18.890625 C 17.824219 18.992188 17.667969 19.488281 17.828125 19.683594 L 17.90625 19.78125 L 18.074219 19.605469 C 18.222656 19.445312 18.484375 18.992188 18.484375 18.894531 C 18.484375 18.84375 18.199219 18.839844 18.082031 18.890625 Z M 18.082031 18.890625 "/>
<path style=" stroke:none;fill-rule:nonzero;fill:rgb(0%,0%,0%);fill-opacity:1;" d="M 18.5625 19.191406 C 18.496094 19.316406 18.351562 19.535156 18.234375 19.667969 C 18.113281 19.804688 18.027344 19.921875 18.035156 19.925781 C 18.101562 19.988281 18.242188 20.027344 18.378906 20.027344 C 18.863281 20.027344 19.128906 19.457031 18.835938 19.050781 C 18.738281 18.921875 18.6875 18.945312 18.5625 19.191406 Z M 18.5625 19.191406 "/>
<path style=" stroke:none;fill-rule:nonzero;fill:rgb(0%,0%,0%);fill-opacity:1;" d="M 18.867188 19.992188 C 18.796875 20.050781 18.671875 20.125 18.597656 20.144531 C 18.4375 20.191406 18.132812 20.167969 17.957031 20.097656 C 17.84375 20.046875 17.820312 20.050781 17.605469 20.167969 C 17.246094 20.367188 17.023438 20.417969 16.554688 20.417969 C 16.1875 20.417969 16.09375 20.40625 15.835938 20.3125 C 15.671875 20.257812 15.519531 20.214844 15.496094 20.222656 C 15.460938 20.234375 16.515625 21.539062 16.648438 21.652344 C 16.660156 21.664062 16.835938 21.867188 17.035156 22.109375 C 17.898438 23.132812 18.417969 23.714844 18.460938 23.714844 C 18.507812 23.714844 18.558594 23.5 18.558594 23.253906 C 18.5625 23.070312 18.734375 22.191406 18.8125 21.976562 C 18.84375 21.890625 18.925781 21.652344 19 21.441406 L 19.128906 21.058594 L 19.089844 20.496094 C 19.070312 20.183594 19.039062 19.917969 19.027344 19.90625 C 19.015625 19.894531 18.941406 19.929688 18.867188 19.992188 Z M 18.867188 19.992188 "/>
<path style=" stroke:none;fill-rule:nonzero;fill:rgb(0%,0%,0%);fill-opacity:1;" d="M 19.007812 21.925781 C 18.96875 22.058594 18.921875 22.207031 18.90625 22.257812 C 18.890625 22.3125 18.855469 22.457031 18.832031 22.582031 C 18.808594 22.707031 18.773438 22.875 18.753906 22.960938 C 18.691406 23.25 18.664062 23.945312 18.710938 24.035156 C 18.738281 24.078125 18.863281 24.238281 18.992188 24.386719 C 19.167969 24.585938 19.230469 24.640625 19.253906 24.597656 C 19.273438 24.566406 19.269531 24.316406 19.25 24.035156 C 19.230469 23.753906 19.21875 23.339844 19.214844 23.117188 C 19.214844 22.667969 19.144531 21.816406 19.101562 21.738281 C 19.082031 21.707031 19.042969 21.78125 19.007812 21.925781 Z M 19.007812 21.925781 "/>
<path style=" stroke:none;fill-rule:nonzero;fill:rgb(0%,0%,0%);fill-opacity:1;" d="M 25.78125 22.492188 C 25.507812 22.839844 24.054688 24.71875 23.535156 25.402344 C 23.207031 25.828125 22.804688 26.355469 22.632812 26.574219 C 21.867188 27.570312 21.816406 27.640625 21.84375 27.691406 C 21.914062 27.820312 22.4375 28.390625 22.476562 28.390625 C 22.523438 28.386719 22.621094 28.269531 23.726562 26.828125 C 24.074219 26.375 24.605469 25.683594 24.90625 25.296875 C 25.210938 24.90625 25.632812 24.355469 25.847656 24.074219 C 26.0625 23.796875 26.347656 23.425781 26.480469 23.253906 C 26.609375 23.082031 26.710938 22.925781 26.695312 22.90625 C 26.648438 22.828125 26.003906 22.371094 25.941406 22.371094 C 25.90625 22.371094 25.832031 22.429688 25.78125 22.492188 Z M 25.78125 22.492188 "/>
<path style=" stroke:none;fill-rule:nonzero;fill:rgb(0%,0%,0%);fill-opacity:1;" d="M 27 23.378906 C 26.734375 23.710938 23.929688 27.34375 23.054688 28.484375 L 22.625 29.058594 L 22.625 29.375 C 22.621094 29.664062 22.566406 29.9375 22.492188 30.003906 C 22.421875 30.074219 22.472656 30.203125 22.609375 30.285156 C 22.761719 30.371094 23.40625 30.636719 23.691406 30.722656 C 24.035156 30.828125 24.097656 30.84375 24.359375 30.890625 C 24.511719 30.914062 24.71875 30.949219 24.835938 30.96875 C 25.171875 31.027344 26.386719 31.011719 26.832031 30.941406 C 27.359375 30.867188 27.566406 30.8125 28.128906 30.625 C 29.144531 30.285156 30.152344 29.628906 30.945312 28.800781 C 31.429688 28.292969 31.722656 27.882812 32.082031 27.226562 C 32.210938 26.988281 32.226562 26.941406 32.179688 26.890625 C 32.132812 26.832031 31.1875 26.128906 30.308594 25.492188 C 29.976562 25.25 28.746094 24.359375 28.148438 23.925781 C 27.960938 23.789062 27.722656 23.617188 27.613281 23.546875 C 27.511719 23.476562 27.414062 23.410156 27.402344 23.394531 C 27.367188 23.355469 27.179688 23.242188 27.144531 23.242188 C 27.125 23.242188 27.0625 23.304688 27 23.378906 Z M 27 23.378906 "/>
<path style=" stroke:none;fill-rule:nonzero;fill:rgb(0%,0%,0%);fill-opacity:1;" d="M 18.707031 24.425781 C 18.6875 24.484375 18.730469 24.925781 18.789062 25.230469 C 18.878906 25.730469 18.980469 26.089844 19.140625 26.5 C 19.246094 26.78125 19.308594 26.875 19.351562 26.828125 C 19.363281 26.820312 19.351562 26.402344 19.328125 25.910156 C 19.277344 24.925781 19.285156 24.957031 19.015625 24.671875 C 18.953125 24.601562 18.871094 24.511719 18.84375 24.460938 C 18.777344 24.367188 18.730469 24.355469 18.707031 24.425781 Z M 18.707031 24.425781 "/>
<path style=" stroke:none;fill-rule:nonzero;fill:rgb(0%,0%,0%);fill-opacity:1;" d="M 19.46875 25.308594 C 19.457031 25.320312 19.453125 25.386719 19.464844 25.449219 C 19.472656 25.519531 19.496094 25.976562 19.519531 26.46875 C 19.546875 27.1875 19.566406 27.390625 19.617188 27.492188 C 19.742188 27.722656 20.027344 28.132812 20.085938 28.152344 C 20.117188 28.167969 20.238281 28.121094 20.359375 28.058594 C 20.476562 27.996094 20.675781 27.917969 20.800781 27.882812 C 20.988281 27.839844 21.058594 27.796875 21.171875 27.664062 C 21.253906 27.574219 21.316406 27.472656 21.316406 27.433594 C 21.316406 27.382812 20.921875 26.859375 20.78125 26.726562 C 20.769531 26.714844 20.667969 26.597656 20.550781 26.460938 C 20.4375 26.324219 20.328125 26.195312 20.304688 26.171875 C 20.285156 26.148438 20.105469 25.9375 19.90625 25.707031 C 19.558594 25.296875 19.519531 25.265625 19.46875 25.308594 Z M 19.46875 25.308594 "/>
<path style=" stroke:none;fill-rule:nonzero;fill:rgb(0%,0%,0%);fill-opacity:1;" d="M 32.453125 27.226562 C 32.410156 27.308594 32.332031 27.449219 32.085938 27.898438 C 32.019531 28.011719 31.914062 28.203125 31.855469 28.316406 C 31.789062 28.429688 31.683594 28.625 31.613281 28.75 C 31.351562 29.21875 31.273438 29.367188 31.03125 29.8125 C 30.527344 30.734375 30.449219 30.875 30.320312 31.117188 C 30.246094 31.253906 30.132812 31.464844 30.0625 31.589844 C 29.941406 31.808594 29.667969 32.3125 29.558594 32.527344 C 29.484375 32.664062 29.507812 32.726562 29.605469 32.640625 C 29.882812 32.386719 30.449219 32.085938 30.867188 31.976562 C 31.425781 31.832031 31.949219 31.816406 32.441406 31.933594 C 32.640625 31.984375 33.8125 30.765625 34.378906 29.933594 C 34.71875 29.433594 34.980469 28.972656 34.960938 28.917969 C 34.941406 28.863281 34.863281 28.804688 33.949219 28.136719 C 32.921875 27.390625 32.570312 27.140625 32.53125 27.140625 C 32.511719 27.140625 32.476562 27.179688 32.453125 27.226562 Z M 32.453125 27.226562 "/>
<path style=" stroke:none;fill-rule:nonzero;fill:rgb(0%,0%,0%);fill-opacity:1;" d="M 19.597656 28.230469 C 19.597656 28.621094 19.621094 28.78125 19.679688 28.761719 C 19.699219 28.753906 19.769531 28.652344 19.832031 28.535156 L 19.957031 28.324219 L 19.800781 28.09375 C 19.722656 27.96875 19.640625 27.863281 19.625 27.863281 C 19.605469 27.863281 19.597656 28.027344 19.597656 28.230469 Z M 19.597656 28.230469 "/>
<path style=" stroke:none;fill-rule:nonzero;fill:rgb(0%,0%,0%);fill-opacity:1;" d="M 21.671875 27.902344 C 21.679688 27.929688 21.707031 27.960938 21.734375 27.96875 C 21.765625 27.980469 21.78125 27.964844 21.769531 27.933594 C 21.761719 27.90625 21.730469 27.875 21.703125 27.867188 C 21.675781 27.859375 21.660156 27.871094 21.671875 27.902344 Z M 21.671875 27.902344 "/>
<path style=" stroke:none;fill-rule:nonzero;fill:rgb(0%,0%,0%);fill-opacity:1;" d="M 20.480469 28.1875 C 20.367188 28.242188 20.269531 28.3125 20.257812 28.34375 C 20.238281 28.394531 20.382812 28.582031 20.441406 28.582031 C 20.46875 28.582031 20.714844 28.273438 20.796875 28.132812 C 20.84375 28.058594 20.699219 28.082031 20.480469 28.1875 Z M 20.480469 28.1875 "/>
<path style=" stroke:none;fill-rule:nonzero;fill:rgb(0%,0%,0%);fill-opacity:1;" d="M 21.128906 28.53125 C 20.957031 28.753906 20.820312 28.957031 20.820312 28.976562 C 20.820312 29.054688 21.457031 29.601562 21.542969 29.601562 C 21.566406 29.601562 21.683594 29.46875 21.804688 29.308594 C 21.925781 29.148438 22.070312 28.960938 22.128906 28.890625 C 22.1875 28.824219 22.238281 28.726562 22.238281 28.679688 C 22.238281 28.582031 21.945312 28.289062 21.746094 28.1875 C 21.507812 28.066406 21.464844 28.09375 21.128906 28.53125 Z M 21.128906 28.53125 "/>
<path style=" stroke:none;fill-rule:nonzero;fill:rgb(0%,0%,0%);fill-opacity:1;" d="M 31.53125 28.386719 C 31.519531 28.425781 30.863281 29.136719 30.773438 29.214844 C 30.039062 29.820312 29.882812 29.929688 29.335938 30.238281 C 28.179688 30.894531 26.820312 31.230469 25.546875 31.175781 C 24.511719 31.136719 23.683594 30.941406 22.730469 30.527344 C 22.519531 30.4375 22.332031 30.359375 22.304688 30.359375 C 22.28125 30.359375 22.1875 30.429688 22.09375 30.515625 C 21.90625 30.6875 21.667969 30.804688 21.375 30.867188 C 21.160156 30.917969 21.265625 30.800781 20.246094 32.128906 C 19.976562 32.484375 19.75 32.800781 19.75 32.835938 C 19.75 32.910156 20.277344 33.222656 20.910156 33.519531 C 21.511719 33.804688 21.796875 33.917969 22.253906 34.054688 C 23.195312 34.332031 23.398438 34.371094 24.648438 34.523438 C 25.367188 34.609375 26.523438 34.546875 27.480469 34.371094 C 27.589844 34.351562 27.667969 34.355469 27.699219 34.378906 C 27.773438 34.441406 27.695312 34.511719 27.527344 34.535156 C 27.449219 34.546875 27.179688 34.585938 26.925781 34.621094 C 26.085938 34.738281 24.464844 34.710938 23.652344 34.554688 C 23.367188 34.5 22.507812 34.300781 22.390625 34.261719 C 22.335938 34.242188 22.21875 34.207031 22.121094 34.179688 C 22.027344 34.152344 21.933594 34.117188 21.910156 34.109375 C 21.890625 34.09375 21.761719 34.042969 21.625 33.992188 C 21.179688 33.839844 20.335938 33.4375 19.890625 33.167969 C 19.730469 33.074219 19.605469 33.019531 19.578125 33.039062 C 19.550781 33.054688 19.433594 33.183594 19.320312 33.332031 C 18.542969 34.335938 18.371094 34.566406 18.371094 34.609375 C 18.371094 34.652344 18.980469 35.09375 19.035156 35.09375 C 19.042969 35.09375 19.207031 35.183594 19.394531 35.289062 C 20.023438 35.660156 21.214844 36.164062 21.875 36.339844 C 22.042969 36.386719 22.214844 36.441406 22.253906 36.453125 C 22.480469 36.542969 23.050781 36.667969 23.539062 36.734375 C 23.761719 36.769531 24.042969 36.8125 24.167969 36.828125 C 24.296875 36.851562 24.695312 36.886719 25.058594 36.914062 C 25.839844 36.96875 26.910156 36.910156 27.03125 36.804688 C 27.066406 36.773438 27.097656 36.734375 27.097656 36.71875 C 27.097656 36.703125 27.171875 36.558594 27.261719 36.394531 C 27.445312 36.0625 27.667969 35.660156 27.90625 35.214844 C 27.992188 35.054688 28.125 34.816406 28.195312 34.683594 C 28.335938 34.429688 28.332031 34.363281 28.175781 34.378906 C 28.113281 34.386719 28.074219 34.371094 28.0625 34.332031 C 28.054688 34.289062 28.117188 34.25 28.273438 34.199219 L 28.496094 34.125 L 28.753906 33.652344 C 28.894531 33.390625 29.097656 33.023438 29.199219 32.839844 C 29.300781 32.648438 29.472656 32.335938 29.585938 32.140625 C 29.695312 31.941406 29.851562 31.65625 29.933594 31.503906 C 30.015625 31.351562 30.140625 31.125 30.207031 30.992188 C 30.585938 30.3125 30.855469 29.820312 31 29.546875 C 31.089844 29.378906 31.265625 29.054688 31.386719 28.824219 C 31.515625 28.59375 31.613281 28.390625 31.613281 28.375 C 31.613281 28.34375 31.542969 28.351562 31.53125 28.386719 Z M 31.53125 28.386719 "/>
<path style=" stroke:none;fill-rule:nonzero;fill:rgb(0%,0%,0%);fill-opacity:1;" d="M 19.988281 28.625 C 19.835938 28.796875 19.707031 29.328125 19.8125 29.363281 C 19.863281 29.382812 20.285156 28.847656 20.285156 28.761719 C 20.285156 28.714844 20.136719 28.542969 20.089844 28.542969 C 20.078125 28.542969 20.03125 28.582031 19.988281 28.625 Z M 19.988281 28.625 "/>
<path style=" stroke:none;fill-rule:nonzero;fill:rgb(0%,0%,0%);fill-opacity:1;" d="M 35.089844 29.097656 C 35.058594 29.136719 34.960938 29.289062 34.875 29.4375 C 34.476562 30.113281 33.59375 31.210938 33.015625 31.757812 C 32.800781 31.953125 32.761719 32.0625 32.898438 32.0625 C 32.933594 32.0625 33.035156 32.003906 33.117188 31.925781 C 33.421875 31.65625 34 31.488281 34.371094 31.566406 C 34.476562 31.589844 34.578125 31.609375 34.597656 31.609375 C 34.617188 31.609375 34.695312 31.519531 34.765625 31.40625 C 34.925781 31.160156 35.113281 31.011719 35.375 30.925781 C 35.519531 30.878906 35.589844 30.828125 35.628906 30.75 C 35.65625 30.691406 35.707031 30.582031 35.746094 30.511719 C 35.855469 30.296875 36.074219 30.171875 36.382812 30.140625 L 36.648438 30.113281 L 36.035156 29.664062 C 35.039062 28.929688 35.167969 29.007812 35.089844 29.097656 Z M 35.089844 29.097656 "/>
<path style=" stroke:none;fill-rule:nonzero;fill:rgb(0%,0%,0%);fill-opacity:1;" d="M 20.558594 29.265625 C 20.535156 29.308594 20.390625 29.492188 20.246094 29.675781 C 20.097656 29.859375 19.980469 30.03125 19.980469 30.054688 C 19.980469 30.078125 20.042969 30.179688 20.125 30.273438 C 20.277344 30.460938 20.679688 30.683594 20.765625 30.632812 C 20.816406 30.605469 21.003906 30.367188 21.28125 29.988281 C 21.34375 29.902344 21.394531 29.804688 21.386719 29.777344 C 21.371094 29.707031 20.738281 29.191406 20.667969 29.1875 C 20.636719 29.1875 20.585938 29.21875 20.558594 29.265625 Z M 20.558594 29.265625 "/>
<path style=" stroke:none;fill-rule:nonzero;fill:rgb(0%,0%,0%);fill-opacity:1;" d="M 22.25 29.542969 C 22.167969 29.632812 22.074219 29.753906 22.046875 29.8125 C 21.992188 29.90625 21.996094 29.917969 22.078125 29.984375 C 22.207031 30.085938 22.269531 30.066406 22.363281 29.890625 C 22.449219 29.726562 22.5 29.375 22.4375 29.375 C 22.414062 29.375 22.328125 29.453125 22.25 29.542969 Z M 22.25 29.542969 "/>
<path style=" stroke:none;fill-rule:nonzero;fill:rgb(0%,0%,0%);fill-opacity:1;" d="M 21.65625 30.308594 C 21.347656 30.707031 21.359375 30.675781 21.507812 30.644531 C 21.769531 30.589844 22.152344 30.316406 22.089844 30.222656 C 22.0625 30.175781 21.914062 30.09375 21.859375 30.09375 C 21.835938 30.09375 21.742188 30.191406 21.65625 30.308594 Z M 21.65625 30.308594 "/>
<path style=" stroke:none;fill-rule:nonzero;fill:rgb(0%,0%,0%);fill-opacity:1;" d="M 19.730469 30.335938 C 19.648438 30.449219 18.878906 31.445312 18.707031 31.664062 C 18.605469 31.789062 18.523438 31.910156 18.523438 31.9375 C 18.523438 31.964844 18.570312 32.027344 18.628906 32.078125 C 18.710938 32.15625 18.71875 32.179688 18.679688 32.230469 C 18.636719 32.28125 18.621094 32.28125 18.523438 32.214844 C 18.464844 32.171875 18.398438 32.140625 18.378906 32.140625 C 18.355469 32.140625 18.164062 32.367188 17.953125 32.640625 C 17.742188 32.914062 17.484375 33.253906 17.378906 33.386719 C 17.273438 33.523438 17.1875 33.664062 17.183594 33.699219 C 17.183594 33.765625 17.816406 34.296875 17.898438 34.296875 C 17.921875 34.296875 18.011719 34.21875 18.089844 34.117188 C 18.335938 33.828125 19.097656 32.828125 19.117188 32.769531 C 19.128906 32.746094 19.085938 32.671875 19.023438 32.613281 C 18.960938 32.550781 18.90625 32.480469 18.90625 32.453125 C 18.90625 32.390625 19.027344 32.390625 19.121094 32.460938 C 19.269531 32.570312 19.335938 32.527344 19.640625 32.128906 C 19.800781 31.914062 20.082031 31.550781 20.261719 31.316406 C 20.441406 31.082031 20.589844 30.875 20.589844 30.855469 C 20.589844 30.832031 20.511719 30.773438 20.410156 30.722656 C 20.308594 30.675781 20.148438 30.554688 20.042969 30.457031 C 19.851562 30.273438 19.792969 30.25 19.730469 30.335938 Z M 19.730469 30.335938 "/>
<path style=" stroke:none;fill-rule:nonzero;fill:rgb(0%,0%,0%);fill-opacity:1;" d="M 36.210938 30.332031 C 35.960938 30.414062 35.714844 30.753906 35.839844 30.84375 C 35.863281 30.863281 35.964844 30.910156 36.066406 30.941406 C 36.167969 30.980469 36.320312 31.078125 36.40625 31.160156 C 36.492188 31.242188 36.582031 31.304688 36.605469 31.304688 C 36.648438 31.304688 36.972656 30.824219 36.972656 30.757812 C 36.972656 30.675781 36.800781 30.457031 36.683594 30.394531 C 36.523438 30.304688 36.363281 30.285156 36.210938 30.332031 Z M 36.210938 30.332031 "/>
<path style=" stroke:none;fill-rule:nonzero;fill:rgb(0%,0%,0%);fill-opacity:1;" d="M 37.261719 30.707031 C 37.230469 30.757812 37.1875 30.878906 37.164062 30.976562 C 37.113281 31.199219 36.976562 31.421875 36.820312 31.535156 C 36.707031 31.609375 36.703125 31.628906 36.722656 31.777344 C 36.757812 31.988281 36.652344 32.324219 36.5 32.523438 C 36.398438 32.660156 36.125 32.839844 35.933594 32.902344 C 35.898438 32.914062 35.890625 32.980469 35.894531 33.109375 C 35.902344 33.339844 35.824219 33.695312 35.699219 33.964844 C 35.589844 34.203125 35.261719 34.546875 35.015625 34.679688 C 34.859375 34.765625 34.847656 34.78125 34.835938 34.953125 C 34.828125 35.050781 34.835938 35.128906 34.847656 35.128906 C 34.941406 35.128906 35.890625 34.261719 36.441406 33.683594 C 36.707031 33.394531 37.09375 32.949219 37.300781 32.6875 C 37.734375 32.128906 38.234375 31.398438 38.234375 31.320312 C 38.234375 31.292969 38.0625 31.140625 37.847656 30.984375 C 37.335938 30.605469 37.332031 30.601562 37.261719 30.707031 Z M 37.261719 30.707031 "/>
<path style=" stroke:none;fill-rule:nonzero;fill:rgb(0%,0%,0%);fill-opacity:1;" d="M 35.441406 31.070312 C 35.207031 31.101562 34.828125 31.503906 34.886719 31.65625 C 34.898438 31.683594 34.964844 31.738281 35.039062 31.773438 C 35.207031 31.851562 35.441406 32.058594 35.574219 32.253906 C 35.632812 32.335938 35.699219 32.402344 35.726562 32.402344 C 35.769531 32.402344 36.003906 32.15625 36.199219 31.898438 C 36.289062 31.777344 36.308594 31.648438 36.238281 31.648438 C 36.214844 31.648438 36.117188 31.613281 36.03125 31.570312 C 35.875 31.496094 35.671875 31.253906 35.671875 31.140625 C 35.671875 31.078125 35.582031 31.054688 35.441406 31.070312 Z M 35.441406 31.070312 "/>
<path style=" stroke:none;fill-rule:nonzero;fill:rgb(0%,0%,0%);fill-opacity:1;" d="M 35.824219 31.125 C 35.824219 31.207031 36.121094 31.445312 36.253906 31.46875 C 36.421875 31.492188 36.449219 31.472656 36.371094 31.359375 C 36.253906 31.179688 35.824219 30.996094 35.824219 31.125 Z M 35.824219 31.125 "/>
<path style=" stroke:none;fill-rule:nonzero;fill:rgb(0%,0%,0%);fill-opacity:1;" d="M 34.003906 31.699219 C 33.988281 31.707031 33.871094 31.746094 33.757812 31.78125 C 33.546875 31.84375 33.144531 32.082031 33.144531 32.144531 C 33.144531 32.15625 33.269531 32.257812 33.425781 32.359375 C 33.753906 32.582031 34.09375 32.929688 34.34375 33.308594 C 34.453125 33.472656 34.550781 33.578125 34.582031 33.570312 C 34.644531 33.558594 35.289062 32.9375 35.289062 32.890625 C 35.289062 32.875 35.238281 32.835938 35.179688 32.804688 C 35.035156 32.734375 34.804688 32.476562 34.738281 32.316406 C 34.710938 32.246094 34.671875 32.101562 34.65625 31.992188 C 34.636719 31.859375 34.605469 31.785156 34.5625 31.761719 C 34.484375 31.71875 34.070312 31.675781 34.003906 31.699219 Z M 34.003906 31.699219 "/>
<path style=" stroke:none;fill-rule:nonzero;fill:rgb(0%,0%,0%);fill-opacity:1;" d="M 36.390625 31.941406 C 36.199219 32.152344 35.824219 32.628906 35.824219 32.664062 C 35.824219 32.910156 36.421875 32.46875 36.507812 32.15625 C 36.589844 31.863281 36.542969 31.78125 36.390625 31.941406 Z M 36.390625 31.941406 "/>
<path style=" stroke:none;fill-rule:nonzero;fill:rgb(0%,0%,0%);fill-opacity:1;" d="M 34.839844 32.042969 C 34.882812 32.351562 35.199219 32.707031 35.429688 32.707031 C 35.757812 32.707031 35.324219 32.058594 34.890625 31.902344 C 34.824219 31.875 34.820312 31.886719 34.839844 32.042969 Z M 34.839844 32.042969 "/>
<path style=" stroke:none;fill-rule:nonzero;fill:rgb(0%,0%,0%);fill-opacity:1;" d="M 31.191406 32.046875 C 30.976562 32.089844 30.585938 32.230469 30.332031 32.355469 C 29.976562 32.53125 29.667969 32.78125 29.40625 33.105469 C 29.199219 33.363281 28.921875 33.871094 28.957031 33.925781 C 28.996094 33.984375 29.101562 33.953125 29.621094 33.742188 C 30.273438 33.46875 30.855469 33.15625 31.421875 32.785156 C 32.019531 32.398438 32.320312 32.144531 32.265625 32.085938 C 32.222656 32.042969 31.382812 32.015625 31.191406 32.046875 Z M 31.191406 32.046875 "/>
<path style=" stroke:none;fill-rule:nonzero;fill:rgb(0%,0%,0%);fill-opacity:1;" d="M 32.222656 32.414062 C 31.304688 33.113281 30.480469 33.574219 29.449219 33.980469 C 29.042969 34.136719 28.871094 34.226562 28.824219 34.292969 C 28.773438 34.367188 28.761719 34.492188 28.761719 34.941406 C 28.761719 35.410156 28.777344 35.527344 28.851562 35.75 C 28.960938 36.078125 29.152344 36.453125 29.207031 36.453125 C 29.433594 36.453125 30.660156 36.03125 31.300781 35.730469 C 31.519531 35.628906 31.703125 35.546875 31.710938 35.546875 C 31.71875 35.546875 31.914062 35.4375 32.15625 35.308594 C 32.722656 34.992188 33.144531 34.722656 33.171875 34.652344 C 33.183594 34.617188 33.113281 34.511719 32.996094 34.390625 C 32.496094 33.871094 32.367188 33.089844 32.675781 32.472656 C 32.789062 32.25 32.785156 32.21875 32.644531 32.164062 C 32.605469 32.15625 32.449219 32.246094 32.222656 32.414062 Z M 32.222656 32.414062 "/>
<path style=" stroke:none;fill-rule:nonzero;fill:rgb(0%,0%,0%);fill-opacity:1;" d="M 32.882812 32.449219 C 32.601562 32.910156 32.578125 33.414062 32.824219 33.898438 C 32.960938 34.179688 33.265625 34.484375 33.40625 34.484375 C 33.472656 34.484375 33.972656 34.125 34.222656 33.898438 C 34.390625 33.746094 34.390625 33.726562 34.21875 33.40625 C 34.023438 33.042969 33.222656 32.332031 33.003906 32.328125 C 32.980469 32.328125 32.925781 32.386719 32.882812 32.449219 Z M 32.882812 32.449219 "/>
<path style=" stroke:none;fill-rule:nonzero;fill:rgb(0%,0%,0%);fill-opacity:1;" d="M 35.085938 33.375 C 34.578125 33.863281 34.605469 33.785156 34.738281 34.273438 C 34.773438 34.414062 34.824219 34.539062 34.851562 34.550781 C 34.976562 34.601562 35.375 34.207031 35.546875 33.863281 C 35.734375 33.492188 35.769531 32.933594 35.601562 32.933594 C 35.566406 32.933594 35.332031 33.136719 35.085938 33.375 Z M 35.085938 33.375 "/>
<path style=" stroke:none;fill-rule:nonzero;fill:rgb(0%,0%,0%);fill-opacity:1;" d="M 16.792969 34.15625 C 16.695312 34.285156 16.535156 34.488281 16.4375 34.609375 C 16.34375 34.730469 16.265625 34.847656 16.265625 34.863281 C 16.265625 34.902344 16.757812 35.292969 16.929688 35.394531 L 17.058594 35.46875 L 17.410156 35.015625 C 17.605469 34.761719 17.757812 34.535156 17.75 34.503906 C 17.734375 34.433594 17.105469 33.917969 17.03125 33.917969 C 17 33.917969 16.894531 34.023438 16.792969 34.15625 Z M 16.792969 34.15625 "/>
<path style=" stroke:none;fill-rule:nonzero;fill:rgb(0%,0%,0%);fill-opacity:1;" d="M 34.371094 34.019531 C 34.316406 34.058594 34.1875 34.152344 34.082031 34.238281 C 33.976562 34.324219 33.832031 34.433594 33.765625 34.484375 C 33.695312 34.53125 33.640625 34.585938 33.640625 34.605469 C 33.640625 34.691406 34.269531 34.753906 34.519531 34.6875 C 34.605469 34.664062 34.605469 34.652344 34.585938 34.40625 C 34.574219 34.265625 34.542969 34.109375 34.515625 34.054688 C 34.464844 33.960938 34.460938 33.957031 34.371094 34.019531 Z M 34.371094 34.019531 "/>
<path style=" stroke:none;fill-rule:nonzero;fill:rgb(0%,0%,0%);fill-opacity:1;" d="M 28.5625 34.378906 C 28.523438 34.425781 28.308594 34.808594 28.007812 35.355469 C 27.59375 36.105469 27.25 36.753906 27.25 36.773438 C 27.25 36.820312 27.691406 36.789062 28.1875 36.699219 C 28.921875 36.570312 29.019531 36.542969 28.976562 36.460938 C 28.683594 35.902344 28.519531 35.15625 28.59375 34.65625 C 28.636719 34.355469 28.628906 34.300781 28.5625 34.378906 Z M 28.5625 34.378906 "/>
<path style=" stroke:none;fill-rule:nonzero;fill:rgb(0%,0%,0%);fill-opacity:1;" d="M 33.199219 34.859375 C 32.730469 35.183594 31.796875 35.679688 30.964844 36.050781 C 30.796875 36.121094 29.964844 36.421875 29.617188 36.53125 C 29.46875 36.574219 29.347656 36.625 29.335938 36.640625 C 29.28125 36.730469 30.019531 37.378906 30.304688 37.5 C 30.425781 37.546875 30.457031 37.546875 30.671875 37.472656 C 31.855469 37.054688 33.308594 36.300781 34.273438 35.589844 C 34.605469 35.34375 34.636719 35.304688 34.636719 35.078125 L 34.636719 34.878906 L 34.246094 34.878906 C 33.96875 34.878906 33.800781 34.859375 33.667969 34.816406 C 33.429688 34.730469 33.382812 34.734375 33.199219 34.859375 Z M 33.199219 34.859375 "/>
<path style=" stroke:none;fill-rule:nonzero;fill:rgb(0%,0%,0%);fill-opacity:1;" d="M 18.132812 34.875 C 18.097656 34.921875 17.941406 35.128906 17.78125 35.339844 C 17.621094 35.546875 17.492188 35.734375 17.492188 35.761719 C 17.492188 35.851562 18.582031 36.503906 19.375 36.882812 C 19.617188 37.003906 19.828125 37.097656 19.839844 37.097656 C 19.851562 37.097656 19.953125 37.140625 20.0625 37.1875 C 20.808594 37.527344 21.972656 37.875 23.039062 38.078125 C 23.761719 38.214844 24.34375 38.277344 25.265625 38.296875 L 26.167969 38.320312 L 26.261719 38.191406 C 26.398438 38.011719 26.828125 37.191406 26.828125 37.117188 C 26.828125 37.058594 26.78125 37.054688 26.34375 37.066406 C 24.355469 37.136719 22.324219 36.777344 20.589844 36.050781 C 19.871094 35.75 18.769531 35.167969 18.324219 34.859375 C 18.203125 34.773438 18.214844 34.773438 18.132812 34.875 Z M 18.132812 34.875 "/>
<path style=" stroke:none;fill-rule:nonzero;fill:rgb(0%,0%,0%);fill-opacity:1;" d="M 15.800781 35.441406 C 15.746094 35.507812 15.679688 35.625 15.652344 35.703125 C 15.609375 35.828125 15.613281 35.855469 15.6875 36.011719 C 15.8125 36.269531 16.023438 36.371094 16.289062 36.300781 C 16.414062 36.261719 16.6875 35.992188 16.6875 35.902344 C 16.6875 35.835938 16.035156 35.320312 15.957031 35.320312 C 15.921875 35.320312 15.847656 35.375 15.800781 35.441406 Z M 15.800781 35.441406 "/>
<path style=" stroke:none;fill-rule:nonzero;fill:rgb(0%,0%,0%);fill-opacity:1;" d="M 34.074219 36.300781 C 33.535156 36.675781 32.605469 37.171875 31.535156 37.660156 L 31.289062 37.773438 L 31.402344 37.816406 C 31.539062 37.871094 32.050781 37.84375 32.410156 37.761719 C 33.101562 37.601562 33.921875 36.992188 34.21875 36.414062 C 34.351562 36.160156 34.316406 36.136719 34.074219 36.300781 Z M 34.074219 36.300781 "/>
<path style=" stroke:none;fill-rule:nonzero;fill:rgb(0%,0%,0%);fill-opacity:1;" d="M 28.6875 36.761719 C 28.335938 36.84375 27.644531 36.96875 27.324219 37.003906 L 27.109375 37.027344 L 26.886719 37.429688 C 26.765625 37.65625 26.613281 37.925781 26.554688 38.035156 C 26.414062 38.28125 26.421875 38.289062 26.980469 38.261719 C 27.808594 38.210938 28.871094 38.015625 29.949219 37.710938 C 30.121094 37.664062 30.101562 37.585938 29.890625 37.441406 C 29.785156 37.371094 29.5625 37.175781 29.394531 37 C 29.230469 36.824219 29.070312 36.683594 29.042969 36.6875 C 29.015625 36.6875 28.855469 36.722656 28.6875 36.761719 Z M 28.6875 36.761719 "/>
</g>
</svg>
